{
    "asset" : {
        "generator" : "Khronos glTF Blender I/O v1.5.17",
        "version" : "2.0"
    },
    "scene" : 0,
    "scenes" : [
        {
            "name" : "Scene",
            "nodes" : [
                0
            ]
        }
    ],
    "nodes" : [
        {
            "mesh" : 0,
            "name" : "fenceCorner"
        }
    ],
    "materials" : [
        {
            "name" : "Black.009",
            "pbrMetallicRoughness" : {
                "baseColorFactor" : [
                    0.019794002175331116,
                    0.03207586705684662,
                    0.037408243864774704,
                    1
                ],
                "metallicFactor" : 0,
                "roughnessFactor" : 0.20000000298023224
            }
        },
        {
            "name" : "Stone",
            "pbrMetallicRoughness" : {
                "baseColorFactor" : [
                    0.1923278123140335,
                    0.22819341719150543,
                    0.24619518220424652,
                    1
                ],
                "metallicFactor" : 0,
                "roughnessFactor" : 0.30000001192092896
            }
        }
    ],
    "meshes" : [
        {
            "name" : "Cylinder.093",
            "primitives" : [
                {
                    "attributes" : {
                        "POSITION" : 0,
                        "NORMAL" : 1,
                        "TEXCOORD_0" : 2
                    },
                    "indices" : 3,
                    "material" : 0
                },
                {
                    "attributes" : {
                        "POSITION" : 4,
                        "NORMAL" : 5,
                        "TEXCOORD_0" : 6
                    },
                    "indices" : 7,
                    "material" : 1
                }
            ]
        }
    ],
    "accessors" : [
        {
            "bufferView" : 0,
            "componentType" : 5126,
            "count" : 660,
            "max" : [
                1.0565199851989746,
                1.4000000953674316,
                1.0000007152557373
            ],
            "min" : [
                -0.9999993443489075,
                0,
                -1.0565199851989746
            ],
            "type" : "VEC3"
        },
        {
            "bufferView" : 1,
            "componentType" : 5126,
            "count" : 660,
            "type" : "VEC3"
        },
        {
            "bufferView" : 2,
            "componentType" : 5126,
            "count" : 660,
            "type" : "VEC2"
        },
        {
            "bufferView" : 3,
            "componentType" : 5123,
            "count" : 1260,
            "type" : "SCALAR"
        },
        {
            "bufferView" : 4,
            "componentType" : 5126,
            "count" : 1240,
            "max" : [
                1.2000008821487427,
                1.3799011707305908,
                1.2000006437301636
            ],
            "min" : [
                -1.1999995708465576,
                0,
                -1.2000008821487427
            ],
            "type" : "VEC3"
        },
        {
            "bufferView" : 5,
            "componentType" : 5126,
            "count" : 1240,
            "type" : "VEC3"
        },
        {
            "bufferView" : 6,
            "componentType" : 5126,
            "count" : 1240,
            "type" : "VEC2"
        },
        {
            "bufferView" : 7,
            "componentType" : 5123,
            "count" : 1278,
            "type" : "SCALAR"
        }
    ],
    "bufferViews" : [
        {
            "buffer" : 0,
            "byteLength" : 7920,
            "byteOffset" : 0
        },
        {
            "buffer" : 0,
            "byteLength" : 7920,
            "byteOffset" : 7920
        },
        {
            "buffer" : 0,
            "byteLength" : 5280,
            "byteOffset" : 15840
        },
        {
            "buffer" : 0,
            "byteLength" : 2520,
            "byteOffset" : 21120
        },
        {
            "buffer" : 0,
            "byteLength" : 14880,
            "byteOffset" : 23640
        },
        {
            "buffer" : 0,
            "byteLength" : 14880,
            "byteOffset" : 38520
        },
        {
            "buffer" : 0,
            "byteLength" : 9920,
            "byteOffset" : 53400
        },
        {
            "buffer" : 0,
            "byteLength" : 2556,
            "byteOffset" : 63320
        }
    ],
    "buffers" : [
        {
            "byteLength" : 65876,
            "uri" : "data:application/octet-stream;base64,"
        }
    ]
}
